<svg xmlns="http://www.w3.org/2000/svg" width="585" height="55">
    <path fill-rule="evenodd" d="M584.079 42.548c-.84.24-2.041.419-3.302.419-4.083 0-6.004-1.855-6.004-5.684V17.66h-3.002c-.721 0-1.201-.598-1.201-1.256v-1.317c0-.658.48-1.256 1.201-1.256h3.002V7.788c0-.658.36-1.136.9-1.316l2.222-.778c.72-.239 1.561-.299 1.561.658v7.479h3.602c.661 0 1.201.598 1.201 1.256v1.317c0 .658-.54 1.256-1.201 1.256h-3.602v19.025c0 1.615.66 2.333 2.161 2.333.481 0 1.261-.119 1.862-.239.6-.12 1.141.299 1.261.957l.24 1.257c.12.718-.06 1.316-.901 1.555zm-33.036.12c-.84 0-1.32-.718-1.32-1.795v-1.376c0-.538.24-1.017.48-1.436l11.588-18.606c.48-.778.901-1.436 1.321-1.855-.54.12-1.381.12-1.741.12h-9.607c-.721 0-1.201-.599-1.201-1.257v-1.376c0-.658.48-1.256 1.201-1.256h14.83c.661 0 1.201.598 1.201 1.256v1.855c0 .598-.12.957-.42 1.436l-11.048 17.828c-.54.898-1.261 1.975-1.741 2.573.6-.06 1.561-.12 2.222-.12h10.087c.66 0 1.201.419 1.201 1.077v1.675c0 .659-.541 1.257-1.201 1.257h-15.852zm-8.166.299c-4.083 0-6.004-1.855-6.004-5.684V17.66h-3.002c-.721 0-1.201-.598-1.201-1.256v-1.317c0-.658.48-1.256 1.201-1.256h3.002V7.788c0-.658.36-1.136.901-1.316l2.221-.778c.721-.239 1.561-.299 1.561.658v7.479h3.603c.66 0 1.201.598 1.201 1.256v1.317c0 .658-.541 1.256-1.201 1.256h-3.603v19.025c0 1.615.661 2.333 2.162 2.333.48 0 1.261-.119 1.861-.239.601-.12 1.141.299 1.261.957l.24 1.257c.12.718-.06 1.316-.9 1.555-.841.24-2.042.419-3.303.419zm-28.43-13.521c.24 6.043 2.342 9.333 7.745 9.333 2.282 0 3.903-.419 5.704-.957.841-.239 1.321.179 1.562.778l.54 1.495c.24.658-.06 1.257-.781 1.556-1.621.718-3.542 1.316-6.965 1.316-8.285 0-12.789-5.205-12.789-14.897 0-9.034 4.444-14.538 10.868-14.538 5.524 0 10.628 3.35 10.628 14.658 0 .658-.541 1.256-1.201 1.256h-15.311zm6.004-12.085c-1.981 0-5.284 1.136-6.004 8.256h11.588c-.12-4.008-1.621-8.256-5.584-8.256zM501.34 6.951a3.48 3.48 0 0 1-3.483-3.47 3.478 3.478 0 0 1 3.483-3.47 3.478 3.478 0 0 1 3.482 3.47 3.479 3.479 0 0 1-3.482 3.47zm2.521 8.076v31.35c0 3.47-1.26 5.684-4.383 7.359l-1.561.838c-.66.359-1.381.119-1.681-.419l-.961-1.675c-.3-.539-.24-1.257.361-1.616l.84-.478c2.402-1.376 2.702-2.513 2.702-5.265V17.66h-3.002c-.72 0-1.201-.598-1.201-1.256v-1.317c0-.658.481-1.256 1.201-1.256h6.425c.66 0 1.26.479 1.26 1.196zm-24.414 27.641h-4.563c-.9 0-1.621-.718-1.621-1.615V22.147c0-1.436-.6-2.513-2.462-2.513-2.581 0-4.443 2.333-4.443 5.923v15.496c0 .897-.72 1.615-1.621 1.615h-4.563a1.611 1.611 0 0 1-1.621-1.615V1.925c0-.897.72-1.615 1.621-1.615h4.563c.901 0 1.621.718 1.621 1.615v14.419c1.621-1.735 4.203-3.231 7.325-3.231 4.504 0 7.386 2.991 7.386 7.478v20.462c0 .897-.721 1.615-1.622 1.615zm-31 .419c-7.865 0-12.849-4.667-12.849-15.376 0-8.137 4.503-14.598 13.449-14.598 1.802 0 3.723.359 5.404 1.017 1.081.419 1.261 1.197 1.081 1.855l-1.081 3.41c-.24.718-.78 1.256-1.921.957-.841-.239-1.561-.538-2.882-.538-3.843 0-6.004 2.453-6.004 7.897 0 5.983 1.681 8.495 6.124 8.495 1.081 0 2.582-.119 3.723-.478 1.02-.299 1.501.179 1.681 1.017l.66 3.53c.18.837 0 1.436-.96 1.795-1.922.718-4.203 1.017-6.425 1.017zM428.35 9.344c-2.582 0-4.683-2.094-4.683-4.667 0-2.572 2.101-4.666 4.683-4.666s4.684 2.094 4.684 4.666c0 2.573-2.102 4.667-4.684 4.667zm4.023 6.102v25.607c0 .897-.72 1.615-1.621 1.615h-4.563a1.611 1.611 0 0 1-1.621-1.615V19.694h-1.982c-.9 0-1.621-.718-1.621-1.615v-2.633c0-.897.721-1.615 1.621-1.615h8.166c.901 0 1.621.718 1.621 1.615zm-13.78 15.197h-13.509c.3 3.17 1.08 5.683 6.004 5.683 2.342 0 4.023-.538 5.644-1.137 1.021-.359 1.441.18 1.681.958l1.201 3.47c.3.897-.24 1.495-.961 1.794-2.702 1.197-5.223 1.676-9.126 1.676-7.746 0-12.669-4.846-12.669-15.077 0-8.675 4.383-14.897 11.768-14.897 7.926 0 11.588 5.384 11.588 15.914 0 .898-.72 1.616-1.621 1.616zm-9.787-11.428c-2.822 0-3.602 2.932-3.782 6.462h7.385c0-3.41-.781-6.462-3.603-6.462zm-17.484 23.872c-5.104 0-6.364-2.872-6.364-7.419V1.925c0-.897.72-1.615 1.621-1.615h4.563c.901 0 1.621.718 1.621 1.615v31.709c0 1.615.12 2.333.721 2.333.54 0 .54-.06.96-.119 1.021-.24 1.381.239 1.501 1.196l.421 3.829c.06.778-.241 1.256-1.021 1.615-.781.359-1.921.599-4.023.599zm-22.781 11.905c-3.722 0-6.844-.418-9.666-1.495-.781-.299-.901-.958-.721-1.676l1.021-3.828c.18-.778.901-1.197 1.801-.898 1.861.598 4.383 1.017 6.845 1.017 2.942 0 4.683-1.256 4.683-5.025v-3.53c-.96 1.675-3.302 3.231-6.244 3.231-4.984 0-9.907-2.693-9.907-15.077 0-4.667.78-9.214 3.602-12.025 1.201-1.197 3.543-2.573 6.185-2.573 3.122 0 5.764 1.556 6.965 3.949l.42-1.616c.24-.957 1.081-1.615 1.981-1.615h3.183c.9 0 1.621.718 1.621 1.615v26.983c0 6.401-.481 12.563-11.769 12.563zm.181-35.238c-2.942 0-4.203 2.513-4.203 8.376 0 6.341 1.621 7.897 4.203 7.897 2.461 0 4.083-2.094 4.083-7.897 0-5.923-1.562-8.376-4.083-8.376zm-14.212.538c-.301.958-.961 1.257-1.802 1.017-.84-.239-1.681-1.136-2.942-1.136-2.281 0-3.482 2.333-3.482 8.555v12.325c0 .897-.721 1.615-1.621 1.615h-4.564c-.9 0-1.621-.718-1.621-1.615V15.446c0-.897.721-1.615 1.621-1.615h3.303c.9 0 1.741.658 1.981 1.615l.42 1.496c1.441-2.214 3.303-3.829 6.125-3.829 1.021 0 1.801.179 2.462.479 1.381.658 1.621 1.495 1.381 2.393l-1.261 4.307zm-21.039 10.351h-13.51c.3 3.17 1.081 5.683 6.004 5.683 2.342 0 4.023-.538 5.644-1.137 1.021-.359 1.441.18 1.681.958l1.201 3.47c.301.897-.24 1.495-.96 1.794-2.702 1.197-5.224 1.676-9.127 1.676-7.745 0-12.669-4.846-12.669-15.077 0-8.675 4.383-14.897 11.769-14.897 7.925 0 11.588 5.384 11.588 15.914 0 .898-.721 1.616-1.621 1.616zm-9.787-11.428c-2.822 0-3.603 2.932-3.783 6.462h7.385c0-3.41-.78-6.462-3.602-6.462zm-19.22 21.957c-.241.957-.961 1.496-1.922 1.496h-7.445c-.961 0-1.681-.539-1.921-1.496l-6.905-25.367c-.361-1.256.24-1.974 1.141-1.974h5.583c.901 0 1.622.598 1.802 1.496l3.482 16.692c.42 1.914.601 4.307.841 6.461.18-2.154.48-4.487.9-6.521l3.363-16.632c.18-.898.9-1.496 1.801-1.496h4.984c.9 0 1.501.718 1.14 1.974l-6.844 25.367zm-41.725 1.496h-4.563a1.611 1.611 0 0 1-1.621-1.615V22.147c0-1.436-.601-2.513-2.462-2.513-2.582 0-4.443 2.453-4.443 5.923v15.496c0 .897-.721 1.615-1.621 1.615h-4.564c-.9 0-1.621-.718-1.621-1.615V15.446c0-.897.721-1.615 1.621-1.615h3.543c.961 0 1.501.598 1.681 1.436l.36 1.615c2.282-2.453 4.804-3.769 7.926-3.769 4.503 0 7.385 2.991 7.385 7.478v20.462c0 .897-.72 1.615-1.621 1.615zm-25.902-12.025h-13.51c.3 3.17 1.081 5.683 6.004 5.683 2.342 0 4.023-.538 5.644-1.137 1.021-.359 1.441.18 1.681.958l1.201 3.47c.3.897-.24 1.495-.96 1.794-2.702 1.197-5.224 1.676-9.127 1.676-7.745 0-12.669-4.846-12.669-15.077 0-8.675 4.383-14.897 11.768-14.897 7.926 0 11.589 5.384 11.589 15.914 0 .898-.721 1.616-1.621 1.616zm-9.787-11.428c-2.822 0-3.603 2.932-3.783 6.462h7.385c0-3.41-.78-6.462-3.602-6.462zm-18.343 23.872c-4.984 0-6.665-2.872-6.665-7.419V19.694h-1.982c-.9 0-1.621-.718-1.621-1.615v-2.633c0-.897.721-1.615 1.621-1.615h1.982V7.37c0-1.137.3-2.154 1.441-2.394l4.383-1.017c1.381-.299 1.981.479 1.981 1.915v7.957h2.582c.901 0 1.621.718 1.621 1.615v2.633c0 .897-.72 1.615-1.621 1.615h-2.582v13.94c0 1.615.541 2.333 1.201 2.333.541 0 .781 0 1.201-.119.961-.24 1.561.119 1.741 1.076l.721 3.77c.12.777-.24 1.376-1.021 1.615-1.441.479-2.882.778-4.983.778zM196.11 20.292c-.301.958-.961 1.257-1.802 1.017-.84-.239-1.681-1.136-2.942-1.136-2.281 0-3.482 2.333-3.482 8.555v12.325c0 .897-.721 1.615-1.621 1.615h-4.564c-.9 0-1.621-.718-1.621-1.615V15.446c0-.897.721-1.615 1.621-1.615h3.303c.9 0 1.741.658 1.981 1.615l.421 1.496c1.441-2.214 3.302-3.829 6.124-3.829 1.021 0 1.801.179 2.462.479 1.381.658 1.621 1.495 1.381 2.393l-1.261 4.307zm-21.419 22.376h-3.902c-1.021 0-1.501-.598-1.681-1.675l-.241-1.436c-1.501 2.154-4.203 3.53-7.865 3.53-5.524 0-8.226-3.65-8.226-9.333 0-5.146 3.062-9.094 10.447-9.513l4.504-.239c0-3.111-.601-4.368-4.023-4.368-2.102 0-4.503.539-6.005 1.017-1.08.359-1.801-.119-1.981-.957l-.841-3.35c-.24-1.017.061-1.616 1.021-1.915 1.982-.658 5.584-1.316 8.166-1.316 11.108 0 11.468 7 11.468 12.205v9.453c0 1.256-.06 2.931.24 4.547l.3 1.735c.181 1.017-.3 1.615-1.381 1.615zm-6.964-13.581l-2.702.12c-2.762.119-4.504 1.495-4.504 4.547 0 2.153 1.562 3.111 2.582 3.111 2.702 0 4.624-1.975 4.624-3.889v-3.889zm-16.825 13.581h-6.304c-1.021 0-1.802-.479-2.342-1.496l-6.485-12.863v12.744c0 .897-.72 1.615-1.621 1.615h-4.563a1.611 1.611 0 0 1-1.621-1.615V1.925c0-.897.72-1.615 1.621-1.615h4.563c.901 0 1.621.718 1.621 1.615V24.72l5.704-9.513c.541-.897 1.321-1.376 2.342-1.376h5.884c.961 0 1.321 1.017.721 1.855l-7.506 10.29 8.827 14.837c.48.838.12 1.855-.841 1.855zm-31.078.419c-4.983 0-6.665-2.872-6.665-7.419V19.694h-1.981a1.611 1.611 0 0 1-1.621-1.615v-2.633c0-.897.72-1.615 1.621-1.615h1.981V7.37c0-1.137.301-2.154 1.441-2.394l4.383-1.017c1.381-.299 1.982.479 1.982 1.915v7.957h2.582c.9 0 1.621.718 1.621 1.615v2.633c0 .897-.721 1.615-1.621 1.615h-2.582v13.94c0 1.615.54 2.333 1.201 2.333.54 0 .78 0 1.201-.119.96-.24 1.561.119 1.741 1.076l.72 3.77c.12.777-.24 1.376-1.02 1.615-1.441.479-2.882.778-4.984.778zM103.342 9.344c-2.582 0-4.683-2.094-4.683-4.667 0-2.572 2.101-4.666 4.683-4.666s4.683 2.094 4.683 4.666c0 2.573-2.101 4.667-4.683 4.667zm4.023 6.102v25.607c0 .897-.721 1.615-1.621 1.615h-4.564c-.9 0-1.621-.718-1.621-1.615V19.694h-1.981a1.611 1.611 0 0 1-1.621-1.615v-2.633c0-.897.72-1.615 1.621-1.615h8.166c.9 0 1.621.718 1.621 1.615zM91.951 42.668h-3.122c-.901 0-1.741-.658-1.981-1.615l-.361-1.556c-1.26 1.795-3.362 3.59-6.964 3.59-4.864 0-9.907-2.453-9.907-15.376 0-4.667.78-9.214 3.602-12.025 1.201-1.197 3.723-2.573 6.365-2.573 3.122 0 4.863 1.256 6.184 2.872V1.925c0-.897.72-1.615 1.621-1.615h4.563c.901 0 1.621.718 1.621 1.615v39.128c0 .897-.72 1.615-1.621 1.615zm-9.967-22.914c-3.002 0-4.263 2.513-4.263 8.376 0 6.341 1.742 8.017 4.263 8.017 2.462 0 4.083-2.214 4.083-8.017 0-5.923-1.561-8.376-4.083-8.376zM65.665 30.643h-13.51c.3 3.17 1.081 5.683 6.004 5.683 2.342 0 4.023-.538 5.644-1.137 1.021-.359 1.441.18 1.681.958l1.201 3.47c.301.897-.24 1.495-.96 1.794-2.702 1.197-5.224 1.676-9.127 1.676-7.745 0-12.669-4.846-12.669-15.077 0-8.675 4.383-14.897 11.769-14.897 7.925 0 11.588 5.384 11.588 15.914 0 .898-.721 1.616-1.621 1.616zm-9.787-11.428c-2.822 0-3.603 2.932-3.783 6.462h7.385c0-3.41-.78-6.462-3.602-6.462zm-13.6 1.077c-.3.958-.961 1.257-1.801 1.017-.841-.239-1.681-1.136-2.942-1.136-2.282 0-3.483 2.333-3.483 8.555v12.325c0 .897-.72 1.615-1.621 1.615h-4.563a1.611 1.611 0 0 1-1.621-1.615V15.446c0-.897.72-1.615 1.621-1.615h3.302c.901 0 1.742.658 1.982 1.615l.42 1.496c1.441-2.214 3.302-3.829 6.124-3.829 1.021 0 1.802.179 2.462.479 1.381.658 1.621 1.495 1.381 2.393l-1.261 4.307zM22.944 42.668h-6.305c-1.02 0-1.801-.479-2.341-1.496L7.813 28.309v12.744c0 .897-.72 1.615-1.621 1.615H1.629a1.611 1.611 0 0 1-1.621-1.615V1.925C.008 1.028.728.31 1.629.31h4.563c.901 0 1.621.718 1.621 1.615V24.72l5.704-9.513c.541-.897 1.321-1.376 2.342-1.376h5.884c.961 0 1.321 1.017.721 1.855l-7.506 10.29 8.827 14.837c.48.838.12 1.855-.841 1.855z"/>
    <path fill="#24A4DB" fill-rule="evenodd" d="M493.03 39.198c0-2.094-1.682-3.709-3.783-3.709-2.102 0-3.723 1.615-3.723 3.709 0 2.094 1.621 3.769 3.723 3.769a3.76 3.76 0 0 0 3.783-3.769zM282.999 29.607V27.48c0-.931-.481-1.463-1.321-1.463h-12.429c-.781 0-1.261.532-1.261 1.463v2.127c0 .864.48 1.396 1.261 1.396h12.429c.84 0 1.321-.532 1.321-1.396z"/>
</svg>
