<svg xmlns="http://www.w3.org/2000/svg" width="48" height="48">
    <path fill="#24A4DB" fill-rule="evenodd" d="M12.246 20.855c-.311.313-.311.521-.207.938.725 1.876 1.865 3.439 3.109 5.002 2.487 3.022 5.284 5.731 8.6 7.919.726.417 1.555.729 2.28 1.146.415.209.622.104.933-.208l3.419-3.439c1.554-1.458 3.42-1.458 4.87 0 1.866 1.876 3.731 3.647 5.492 5.523 1.555 1.563 1.555 3.439 0 5.002-1.036 1.042-2.176 2.084-3.108 3.23-1.451 1.667-3.213 2.188-5.285 1.979-3.005-.208-5.803-1.146-8.393-2.5-5.907-2.918-10.984-6.878-15.233-11.983-3.109-3.751-5.699-7.815-7.461-12.4-.829-2.188-1.45-4.481-1.243-6.877.104-1.459.622-2.71 1.761-3.856L5.2 6.893c1.554-1.459 3.42-1.459 4.87 0l2.798 2.813 2.694 2.709c1.555 1.563 1.555 3.439 0 5.106-1.036 1.042-2.072 2.188-3.316 3.334zm24.87-16.88C33.281 1.37 28.929.12 24.266.015c-1.036 0-1.761.417-2.176 1.355-.414.938-.311 1.876.415 2.709.518.626 1.347.73 2.072.73 7.15.417 12.642 3.647 16.165 10.003 1.555 2.709 2.28 5.731 2.384 8.961 0 1.563 1.036 2.397 2.59 2.397 1.451-.105 2.28-1.042 2.28-2.501-.207-6.46-2.591-11.983-7.565-17.089-.829-.625-1.968-1.667-3.315-2.605zm-15.544 8.128c.207 1.042 1.14 1.771 2.28 1.771 2.694 0 5.077.834 7.046 2.709 2.176 1.98 3.212 4.585 3.316 7.503 0 .521.207 1.146.518 1.563.622.833 1.762 1.146 2.798.729.933-.313 1.451-1.146 1.451-2.292 0-4.064-1.555-7.607-4.352-10.629-2.902-2.813-6.425-4.272-10.466-4.376a4.44 4.44 0 0 0-1.244.208c-1.14.521-1.658 1.667-1.347 2.814z"/>
</svg>
